<svg width="334" height="334" viewBox="0 0 334 334" fill="none" xmlns="http://www.w3.org/2000/svg">
<circle opacity="0.2" cx="167" cy="167" r="167" fill="#07AEEF"/>
<path opacity="0.2" d="M302.178 167.263C302.178 241.484 242.01 301.652 167.789 301.652C93.568 301.652 33.4 241.484 33.4 167.263C33.4 93.042 93.568 32.874 167.789 32.874C242.01 32.874 302.178 93.042 302.178 167.263Z" fill="#0F76BC"/>
<path opacity="0.7" d="M272.46 167.526C272.46 225.77 225.479 272.986 167.526 272.986C109.573 272.986 62.5921 225.77 62.5921 167.526C62.5921 109.282 109.573 62.0662 167.526 62.0662C225.479 62.0662 272.46 109.282 272.46 167.526Z" fill="#07AEEF"/>
<path opacity="0.7" d="M255.102 167.263C255.102 215.775 216.011 255.102 167.789 255.102C119.567 255.102 80.4756 215.775 80.4756 167.263C80.4756 118.751 119.567 79.4236 167.789 79.4236C216.011 79.4236 255.102 118.751 255.102 167.263Z" fill="#0F76BC"/>
</svg>
